<svg width="9" height="6" viewBox="0 0 9 6" fill="none" xmlns="http://www.w3.org/2000/svg">
<path fill-rule="evenodd" clip-rule="evenodd" d="M8 1.40008C8 1.50247 7.96189 1.60487 7.88606 1.68287L4.77499 4.88271C4.62294 5.0391 4.37716 5.0391 4.22511 4.88271L1.11404 1.68287C0.961987 1.52647 0.961987 1.27369 1.11404 1.11729C1.26609 0.960902 1.51187 0.960902 1.66392 1.11729L4.50005 4.03435L7.33618 1.11729C7.48823 0.960902 7.734 0.960902 7.88606 1.11729C7.96189 1.19529 8 1.29769 8 1.40008Z" fill="#0078BE"/>
<path d="M8 1.40008C8 1.50247 7.96189 1.60487 7.88606 1.68287L4.77499 4.88271C4.62294 5.0391 4.37716 5.0391 4.22511 4.88271L1.11404 1.68287C0.961987 1.52647 0.961987 1.27369 1.11404 1.11729C1.26609 0.960902 1.51187 0.960902 1.66392 1.11729L4.50005 4.03435L7.33618 1.11729C7.48823 0.960902 7.734 0.960902 7.88606 1.11729C7.96189 1.19529 8 1.29769 8 1.40008" stroke="#0078BE"/>
</svg>
