<svg width="12" height="20" viewBox="0 0 12 20" fill="none" xmlns="http://www.w3.org/2000/svg">
<path d="M11.7111 10.7378C11.4155 10.2459 10.6281 9.753 9.64323 10.5404C8.26468 11.6234 6.00051 11.6234 6.00051 11.6234C6.00051 11.6234 3.73634 11.6234 2.35779 10.5404C1.27479 9.753 0.487341 10.2449 0.289953 10.7378C-0.201936 11.7227 0.388119 12.1164 1.56929 12.9038C2.65229 13.5931 4.12901 13.7894 5.01462 13.8887L4.22823 14.6761C3.14523 15.7591 2.06223 16.8421 1.27479 17.5314C1.15917 17.6275 1.06614 17.7478 1.00228 17.8839C0.93843 18.02 0.905328 18.1685 0.905328 18.3188C0.905328 18.4692 0.93843 18.6176 1.00228 18.7537C1.06614 18.8898 1.15917 19.0102 1.27479 19.1063L1.37295 19.2044C1.57034 19.4018 1.8659 19.5 2.16145 19.5C2.45701 19.5 2.75256 19.4018 2.9489 19.2044L5.90234 16.3492C6.98534 17.4322 8.06834 18.5152 8.85579 19.2044C9.09269 19.3956 9.38791 19.4999 9.69231 19.4999C9.99672 19.4999 10.2919 19.3956 10.5288 19.2044L10.627 19.1063C11.1189 18.7126 11.1189 18.0233 10.627 17.5314L7.67462 14.6761L6.88718 13.9868C7.87201 13.8887 9.34873 13.6913 10.3325 13.002C11.6118 12.2146 12.203 11.7227 11.7111 10.7378ZM5.90234 2.96156C7.2809 2.96156 8.3639 4.04456 8.3639 5.32389C8.3639 6.60322 7.2809 7.68622 5.90234 7.68622C4.52379 7.68622 3.44079 6.60322 3.44079 5.32389C3.44079 4.04456 4.52379 2.96156 5.90234 2.96156ZM5.90234 10.1478C8.6584 10.1478 10.9226 7.98178 10.9226 5.32389C10.9226 2.666 8.6584 0.5 5.90234 0.5C3.14629 0.5 0.882119 2.666 0.882119 5.32389C0.882119 7.98178 3.14629 10.1478 5.90234 10.1478Z" fill="#313140"/>
</svg>
