<svg width="16" height="10" viewBox="0 0 16 10" fill="none" xmlns="http://www.w3.org/2000/svg">
<path d="M10.6182 4.3143C11.7047 4.3143 12.5753 3.39544 12.5753 2.25716C12.5753 1.11887 11.7047 0.200012 10.6182 0.200012C9.53162 0.200012 8.65453 1.11887 8.65453 2.25716C8.65453 3.39544 9.53162 4.3143 10.6182 4.3143ZM5.38181 4.3143C6.46835 4.3143 7.3389 3.39544 7.3389 2.25716C7.3389 1.11887 6.46835 0.200012 5.38181 0.200012C4.29526 0.200012 3.41817 1.11887 3.41817 2.25716C3.41817 3.39544 4.29526 4.3143 5.38181 4.3143ZM5.38181 5.68573C3.85671 5.68573 0.799988 6.48801 0.799988 8.08573V9.1143C0.799988 9.49144 1.09453 9.80001 1.45453 9.80001H9.30908C9.66908 9.80001 9.96362 9.49144 9.96362 9.1143V8.08573C9.96362 6.48801 6.9069 5.68573 5.38181 5.68573ZM10.6182 5.68573C10.4284 5.68573 10.2124 5.69944 9.98326 5.72001C9.99635 5.72687 10.0029 5.74058 10.0094 5.74744C10.7556 6.31658 11.2727 7.07773 11.2727 8.08573V9.1143C11.2727 9.3543 11.2269 9.58744 11.1549 9.80001H14.5454C14.9054 9.80001 15.2 9.49144 15.2 9.1143V8.08573C15.2 6.48801 12.1433 5.68573 10.6182 5.68573Z" fill="#3D95FB"/>
</svg>
