<svg width="14" height="16" viewBox="0 0 14 16" fill="none" xmlns="http://www.w3.org/2000/svg">
<path fill-rule="evenodd" clip-rule="evenodd" d="M4 0C4.41563 0 4.75 0.335938 4.75 0.75V2H9.25V0.75C9.25 0.335938 9.58438 0 10 0C10.4156 0 10.75 0.335938 10.75 0.75V2H12C13.1031 2 14 2.89531 14 4V14C14 15.1031 13.1031 16 12 16H2C0.895313 16 0 15.1031 0 14V4C0 2.89531 0.895313 2 2 2H3.25V0.75C3.25 0.335938 3.58438 0 4 0ZM12.5 6H1.5V14C1.5 14.275 1.72375 14.5 2 14.5H12C12.275 14.5 12.5 14.275 12.5 14V6ZM5.89474 8.72727C5.89474 8.32561 6.23663 8 6.65838 8H10.289C10.7107 8 11.0526 8.32561 11.0526 8.72727C11.0526 9.12893 10.7107 9.45455 10.289 9.45455H6.65838C6.23663 9.45455 5.89474 9.12893 5.89474 8.72727ZM3.68421 8C3.27727 8 2.94737 8.31419 2.94737 8.70175V8.75279C2.94737 9.14036 3.27727 9.45455 3.68421 9.45455C4.09116 9.45455 4.42106 9.14036 4.42106 8.75279V8.70175C4.42106 8.31419 4.09116 8 3.68421 8ZM9.57897 11.6115C9.57897 11.2239 9.90887 10.9097 10.3158 10.9097C10.7228 10.9097 11.0527 11.2239 11.0527 11.6115V11.6625C11.0527 12.0501 10.7228 12.3643 10.3158 12.3643C9.90887 12.3643 9.57897 12.0501 9.57897 11.6625V11.6115ZM3.71084 10.9097C3.28909 10.9097 2.9472 11.2353 2.9472 11.637C2.9472 12.0387 3.28909 12.3643 3.71084 12.3643H7.34146C7.7632 12.3643 8.10509 12.0387 8.10509 11.637C8.10509 11.2353 7.7632 10.9097 7.34146 10.9097H3.71084Z" fill="#3D95FB"/>
</svg>
