<svg width="12" height="16" viewBox="0 0 12 16" fill="none" xmlns="http://www.w3.org/2000/svg">
<path d="M6.037 0C2.86758 0 0 2.60892 0 6.68535C0 9.29427 1.8111 12.3108 5.50877 15.8166C5.81062 16.0611 6.18793 16.0611 6.48978 15.8166C10.1874 12.3108 11.9985 9.21274 11.9985 6.68535C12.074 2.60892 9.20643 0 6.037 0ZM6.037 8.15287C5.20692 8.15287 4.52775 7.41911 4.52775 6.52229C4.52775 5.62548 5.20692 4.89172 6.037 4.89172C6.86709 4.89172 7.54625 5.62548 7.54625 6.52229C7.54625 7.41911 6.86709 8.15287 6.037 8.15287Z" fill="#3D95FB"/>
</svg>
