<svg width="82" height="24" viewBox="0 0 82 24" fill="none" xmlns="http://www.w3.org/2000/svg">
<g clip-path="url(#clip0_29_762)">
<path d="M13.0627 22.9445C16.3934 24.1786 19.1717 22.4086 19.1717 22.4086C18.0832 21.7104 17.1571 20.9797 16.3609 20.2165C15.1749 21.5155 13.9401 22.4086 13.0627 22.9445Z" fill="white"/>
<path d="M10.8532 9.35317C11.3894 9.2395 12.0555 9.20702 12.7379 9.27198C12.9654 9.2395 13.1766 9.19079 13.3715 9.15831C14.2327 8.99593 15.045 8.94721 15.6137 8.94721C13.599 7.87549 10.902 8.03788 8.43237 9.33693C8.67608 9.54802 8.91979 9.75912 9.08226 9.88903C9.68341 9.66169 10.2846 9.48307 10.8532 9.35317Z" fill="white"/>
<path d="M3.54193 14.2571C3.10325 15.1015 2.79455 15.9783 2.63208 16.8389C2.94078 15.9621 3.31447 15.1827 3.75314 14.4682C3.68815 14.4032 3.62316 14.3383 3.54193 14.2571Z" fill="white"/>
<path d="M20.0005 10.8633C20.0005 10.8633 18.8469 9.90527 17.3846 9.58051C17.0597 9.51555 16.7347 9.46684 16.4098 9.43436C16.2473 9.41812 16.0036 9.41812 15.6787 9.41812C15.2238 9.41812 14.6389 9.43436 14.0052 9.53179C14.0052 9.53179 14.0052 9.53179 14.0215 9.53179C13.794 9.56427 13.6153 9.59674 13.469 9.61298C13.4041 9.62922 13.3391 9.62922 13.2741 9.64546C13.1928 9.6617 13.1603 9.6617 13.1603 9.6617C11.8118 9.95398 10.6095 10.3112 9.53721 10.7334C9.35849 10.6197 9.11478 10.4574 8.82233 10.2463L8.00996 9.58051C7.89623 9.48308 7.7825 9.36941 7.65252 9.2395C7.57129 9.17455 7.5063 9.09336 7.44131 9.04465C5.84907 7.45331 3.80192 4.67658 2.24218 0.0487061C2.24218 0.0487061 -3.49311 6.21921 3.39574 13.4614C3.42823 13.4939 3.47697 13.5426 3.50947 13.5913C3.57446 13.6563 3.6232 13.7212 3.68819 13.7699C3.78567 13.8674 3.8994 13.981 3.99689 14.0785C4.09437 14.1759 4.2081 14.2733 4.30558 14.3708C0.162528 19.7781 5.36166 26.7605 12.1855 22.9445C12.1855 22.9445 12.1855 22.9445 12.2018 22.9445C12.9654 22.5223 14.6064 21.4993 16.1336 19.8268C16.4748 19.3884 16.7835 18.9337 17.0434 18.4628L17.0597 18.4465C18.132 16.5629 18.5219 14.5169 18.2133 12.7469C17.7258 12.7957 17.1897 12.8769 16.8485 12.9256C17.1247 14.3058 16.8322 15.8322 16.2636 17.18C16.2636 17.18 16.2636 17.18 16.2636 17.1962C16.1011 17.5859 15.9224 17.9432 15.7274 18.2679C15.5649 18.5277 15.4025 18.7875 15.24 19.0311C12.9816 16.4817 12.153 14.111 12.0068 13.6563C12.9816 13.3153 14.1027 13.0068 15.3537 12.7469L15.4837 12.7145C15.7924 12.6495 16.1011 12.5846 16.4261 12.5358C16.5235 12.5196 16.6373 12.5034 16.7347 12.4871C17.1409 12.4222 17.9046 12.3085 18.457 12.2598C18.9444 12.2111 19.3506 12.1624 19.6755 12.0974C20.5529 11.9188 20.4716 11.2206 20.0005 10.8633ZM11.4544 11.1881C11.4869 11.0582 11.6169 10.977 11.7468 11.0095C11.8768 11.0419 11.9418 11.1881 11.8931 11.318C11.8606 11.4479 11.7306 11.5291 11.6006 11.4966C11.4706 11.4479 11.4056 11.318 11.4544 11.1881ZM3.73693 17.8944C3.70443 17.9756 3.6232 18.0406 3.54196 18.0081C3.46072 17.9919 3.41198 17.8944 3.44448 17.797C3.47697 17.7158 3.55821 17.6509 3.63945 17.6833C3.72068 17.6996 3.76942 17.797 3.73693 17.8944ZM4.37057 16.5792C4.33808 16.6766 4.24059 16.7415 4.14311 16.7253C4.04563 16.6928 3.99689 16.5954 4.01313 16.4817C4.04563 16.3843 4.14311 16.3193 4.24059 16.3356C4.35433 16.3518 4.40307 16.4655 4.37057 16.5792ZM5.23168 15.3613C5.19918 15.4912 5.06921 15.5561 4.95547 15.5237C4.84174 15.4912 4.77675 15.3613 4.80925 15.2314C4.84174 15.1015 4.97172 15.0203 5.08545 15.069C5.19918 15.1015 5.28042 15.2314 5.23168 15.3613ZM5.32916 12.4547C5.32916 12.4547 5.16669 12.276 5.00422 12.0974C1.90099 8.4276 3.67194 4.69282 3.67194 4.69282C4.53305 6.65764 6.23901 8.49255 7.68502 9.77536L8.26992 10.295C9.27725 11.1556 10.0409 11.6752 10.0409 11.6752C10.2358 12.7145 7.1651 14.046 7.1651 14.046C6.43398 13.5264 5.83283 12.9905 5.32916 12.4547ZM7.05137 16.6279C8.3999 19.3721 9.89465 21.0609 11.3569 22.0514C6.92139 23.7402 3.99689 20.0216 7.05137 16.6279ZM14.9963 19.3721C14.8663 19.5507 14.7363 19.7131 14.6064 19.8755C14.4764 20.0379 14.3464 20.184 14.2164 20.3302C12.6729 20.2003 10.3171 19.2747 8.65985 15.2801C8.75734 15.2151 8.85482 15.1502 8.96855 15.0852C9.27725 14.8904 9.60219 14.7118 9.95963 14.5331C9.97588 14.5331 9.99213 14.5169 10.0084 14.5169C10.1059 14.4682 10.2196 14.4195 10.3171 14.3708C10.3496 14.3545 10.3983 14.3383 10.4308 14.322C10.5283 14.2733 10.642 14.2246 10.7395 14.1759C10.772 14.1597 10.8207 14.1434 10.8532 14.1272C11.0969 14.0298 11.3407 13.9161 11.6006 13.8187C11.8281 14.5494 12.7379 16.9039 14.9963 19.3721ZM13.4203 10.9283C13.3878 11.0582 13.2578 11.1394 13.1279 11.1069C12.9979 11.0744 12.9329 10.9445 12.9816 10.7984C13.0141 10.6685 13.1441 10.5873 13.2741 10.6197C13.4041 10.6522 13.469 10.7984 13.4203 10.9283ZM17.0759 10.5061C16.2961 10.2463 16.4098 10.1326 16.4098 10.1326C16.491 10.0352 17.1734 9.85655 18.2295 9.90527C18.2295 9.90527 18.6032 10.0839 18.8794 10.2463C19.1556 10.4087 19.3831 10.5873 19.3831 10.5873C18.2782 10.636 17.6933 10.7009 17.0759 10.5061Z" fill="white"/>
<path d="M41.8692 10.7172C41.2356 10.3437 40.4882 10.1813 39.7733 10.1813H39.7571C39.0422 10.1813 38.2948 10.3437 37.6612 10.7172C37.3037 10.9283 37.0763 11.1881 36.9463 11.4966V16.1083C37.0763 16.4005 37.3037 16.6766 37.6612 16.8877C39.3021 17.862 41.593 17.4236 42.5029 16.4168C42.5029 16.4168 42.7303 16.1245 42.4216 15.7673C41.9017 15.1502 41.7067 15.3126 41.7067 15.3126C40.4395 16.5467 38.6685 15.9459 38.5873 15.7023C38.571 15.6536 38.5385 15.5399 38.5385 15.4425V14.5819C38.9285 14.6955 39.3346 14.7443 39.7408 14.7443H39.7571C40.4719 14.7443 41.2193 14.5819 41.853 14.2084C42.2104 13.9973 42.4379 13.7213 42.5678 13.429V11.4966C42.4541 11.2043 42.2267 10.9283 41.8692 10.7172ZM40.9756 12.747C40.9756 12.8444 40.9431 12.9581 40.9269 13.0068C40.8944 13.1367 40.3907 13.364 39.7571 13.3803C39.1234 13.364 38.636 13.1367 38.5873 13.0068C38.571 12.9581 38.5385 12.8444 38.5385 12.747V12.1624C38.5385 12.065 38.571 11.9513 38.5873 11.9026C38.6198 11.7727 39.1234 11.5453 39.7571 11.5291C40.3907 11.5453 40.8781 11.7727 40.9269 11.9026C40.9431 11.9513 40.9756 12.065 40.9756 12.1624V12.747Z" fill="white"/>
<path d="M49.2455 11.1718C49.2455 11.1718 49.0181 11.4641 49.3268 11.8214C49.8467 12.4384 50.0417 12.276 50.0417 12.276C50.6428 11.6915 51.3577 11.5128 51.9426 11.5291C52.6087 11.5291 53.1936 11.7402 53.1936 12V13.023C51.7476 12.6333 50.5128 13.023 49.8792 13.3965C49.5217 13.6076 49.2943 13.8836 49.1643 14.1759V16.1082C49.2943 16.4005 49.5217 16.6766 49.8792 16.8877C51.0815 17.6022 52.8524 17.6184 54.0872 16.8877C54.4447 16.6766 54.6721 16.4168 54.8021 16.1082V11.4804C53.8598 9.67793 50.3016 9.9215 49.2455 11.1718ZM53.1936 15.4262C53.1936 15.5237 53.1611 15.6373 53.1449 15.686C53.1124 15.816 52.6087 16.0433 51.9751 16.0595C51.3414 16.0433 50.854 15.816 50.8053 15.686C50.789 15.6373 50.7565 15.5237 50.7565 15.4262V14.8417C50.7565 14.7442 50.789 14.6306 50.8053 14.5819C50.8378 14.4519 51.3414 14.2246 51.9751 14.2084C52.6087 14.2246 53.0961 14.4519 53.1449 14.5819C53.1611 14.6306 53.1936 14.7442 53.1936 14.8417V15.4262Z" fill="white"/>
<path d="M48.6445 10.4411C48.612 10.3924 48.5957 10.3437 48.5632 10.3275C48.5307 10.3112 48.482 10.295 48.4495 10.295H43.3478C43.2991 10.295 43.2666 10.3112 43.2341 10.3275C43.2016 10.3437 43.1691 10.3924 43.1529 10.4411C43.1366 10.4898 43.1041 10.571 43.1041 10.6685C43.0879 10.7659 43.0879 10.8796 43.0879 11.0257C43.0879 11.1718 43.0879 11.2855 43.1041 11.3829C43.1204 11.4804 43.1366 11.5453 43.1529 11.6103C43.1854 11.659 43.2016 11.7077 43.2341 11.7239C43.2666 11.7402 43.3153 11.7564 43.3478 11.7564H45.0701V17.0501C45.0701 17.0988 45.0863 17.1312 45.1026 17.1637C45.135 17.1962 45.1675 17.2287 45.2325 17.2449C45.2975 17.2612 45.3788 17.2774 45.4925 17.2936C45.59 17.3099 45.7362 17.3099 45.8987 17.3099C46.0611 17.3099 46.1911 17.3099 46.3049 17.2936C46.4186 17.2774 46.4998 17.2612 46.5648 17.2449C46.6298 17.2287 46.6785 17.1962 46.6948 17.1637C46.7273 17.1312 46.7273 17.0988 46.7273 17.0501V11.7402H48.4495C48.4982 11.7402 48.5307 11.7239 48.5632 11.7077C48.5957 11.6915 48.6282 11.6428 48.6445 11.594C48.6607 11.5453 48.6932 11.4641 48.6932 11.3667C48.7094 11.2693 48.7094 11.1556 48.7094 11.0095C48.7094 10.8633 48.7094 10.7497 48.6932 10.6522C48.6932 10.571 48.677 10.4898 48.6445 10.4411Z" fill="white"/>
<path d="M36.1502 10.6685C36.134 10.571 36.1178 10.5061 36.1015 10.4411C36.069 10.3924 36.0528 10.3437 36.0203 10.3275C35.9878 10.3112 35.939 10.295 35.9065 10.295H32.7383C31.5685 10.295 31.5523 10.636 31.471 11.5778C31.3248 13.2341 31.1623 15.069 29.9438 16.1245C29.9113 16.157 29.8788 16.1894 29.8788 16.2382C29.8626 16.2869 29.8788 16.3356 29.895 16.4005C29.9113 16.4655 29.96 16.5467 30.0088 16.6279C30.0738 16.7091 30.1388 16.8227 30.2525 16.9526C30.35 17.0825 30.3987 17.0988 30.4637 17.18C30.5449 17.2612 30.6099 17.3099 30.6749 17.3423C30.7399 17.3748 30.7886 17.3911 30.8374 17.3748C30.8861 17.3748 30.9349 17.3423 30.9674 17.3099C32.5271 16.1732 32.8196 14.0947 33.0633 12.3897C33.0958 12.1786 33.0633 11.7564 33.4694 11.7564H34.5093V17.0501C34.5093 17.0988 34.5255 17.1312 34.5418 17.1637C34.5743 17.1962 34.6068 17.2287 34.6717 17.2449C34.7367 17.2612 34.818 17.2774 34.9317 17.2936C35.0292 17.3099 35.1754 17.3099 35.3379 17.3099C35.5004 17.3099 35.6303 17.3099 35.7441 17.2936C35.8578 17.2774 35.939 17.2612 36.004 17.2449C36.069 17.2287 36.1178 17.1962 36.134 17.1637C36.1665 17.1312 36.1665 17.0988 36.1665 17.0501V10.977C36.1665 10.8633 36.1665 10.7497 36.1502 10.6685Z" fill="white"/>
<path d="M60.7973 10.4411C60.7648 10.3924 60.7485 10.3437 60.7161 10.3275C60.6836 10.3112 60.6348 10.295 60.6023 10.295H55.5007C55.4519 10.295 55.4194 10.3112 55.3869 10.3275C55.3545 10.3437 55.322 10.3924 55.3057 10.4411C55.2895 10.4898 55.257 10.571 55.257 10.6685C55.2407 10.7659 55.2407 10.8796 55.2407 11.0257C55.2407 11.1718 55.2407 11.2855 55.257 11.3829C55.2732 11.4804 55.2895 11.5453 55.3057 11.6103C55.3382 11.659 55.3545 11.7077 55.3869 11.7239C55.4194 11.7402 55.4682 11.7564 55.5007 11.7564H57.2229V17.0501C57.2229 17.0988 57.2391 17.1312 57.2554 17.1637C57.2879 17.1962 57.3204 17.2287 57.3854 17.2449C57.4504 17.2612 57.5316 17.2774 57.6453 17.2936C57.7428 17.3099 57.889 17.3099 58.0515 17.3099C58.214 17.3099 58.3439 17.3099 58.4577 17.2936C58.5714 17.2774 58.6526 17.2612 58.7176 17.2449C58.7826 17.2287 58.8314 17.1962 58.8476 17.1637C58.8801 17.1312 58.8801 17.0988 58.8801 17.0501V11.7402H60.6023C60.6511 11.7402 60.6836 11.7239 60.7161 11.7077C60.7485 11.6915 60.781 11.6428 60.7973 11.594C60.8135 11.5453 60.846 11.4641 60.846 11.3667C60.8623 11.2693 60.8623 11.1556 60.8623 11.0095C60.8623 10.8633 60.8623 10.7497 60.846 10.6522C60.846 10.571 60.8135 10.4898 60.7973 10.4411Z" fill="white"/>
<path d="M66.2403 13.4127C65.6067 13.0392 64.3881 12.6495 62.9746 13.023V10.5548C62.9746 10.5061 62.9584 10.4736 62.9421 10.4411C62.9096 10.4087 62.8771 10.3762 62.8121 10.3599C62.7471 10.3437 62.6659 10.3275 62.5522 10.3112C62.4547 10.295 62.3085 10.295 62.146 10.295C61.9835 10.295 61.8535 10.295 61.7398 10.3112C61.6261 10.3275 61.5448 10.3437 61.4799 10.3599C61.4149 10.3762 61.3661 10.4087 61.3499 10.4411C61.3174 10.4736 61.3174 10.5061 61.3174 10.5548V16.1245C61.4474 16.4168 61.6748 16.6928 62.0323 16.9039C63.2671 17.6346 65.038 17.6184 66.2403 16.9039C66.5978 16.6928 66.8252 16.433 66.9552 16.1245V14.1921C66.8252 13.8999 66.5978 13.6238 66.2403 13.4127ZM65.3467 15.4425C65.3467 15.5399 65.3142 15.6536 65.298 15.7023C65.2655 15.8322 64.7618 16.0595 64.1282 16.0758C63.4945 16.0595 63.0071 15.8322 62.9584 15.7023C62.9421 15.6536 62.9096 15.5399 62.9096 15.4425V14.8579C62.9096 14.7605 62.9421 14.6468 62.9584 14.5981C62.9909 14.4682 63.4945 14.2571 64.1282 14.2246C64.7618 14.2409 65.2492 14.4682 65.298 14.5981C65.3142 14.6468 65.3467 14.7605 65.3467 14.8579V15.4425Z" fill="white"/>
<path d="M26.7106 11.5291C27.2955 11.5291 28.0104 11.6915 28.6115 12.276C28.6115 12.276 28.7902 12.4222 29.3264 11.8214C29.6351 11.4641 29.4076 11.1718 29.4076 11.1718C28.3516 9.92151 24.9071 9.48308 23.8511 11.9188V15.6373C24.9071 18.0893 28.3516 17.6509 29.4076 16.3843C29.4076 16.3843 29.6351 16.092 29.3264 15.7348C28.8065 15.1177 28.6115 15.2801 28.6115 15.2801C28.0104 15.8647 27.2955 16.0433 26.7106 16.0271C26.0445 16.0271 25.4596 15.4912 25.4596 15.2314V12.3085C25.4433 12.0649 26.0445 11.5291 26.7106 11.5291Z" fill="white"/>
<path d="M81.9514 10.4411C81.9189 10.4087 81.8864 10.3762 81.8214 10.3599C81.7564 10.3437 81.6752 10.3275 81.5615 10.3112C81.4477 10.295 81.3177 10.295 81.1553 10.295C80.9928 10.295 80.8628 10.295 80.7491 10.3112C80.6516 10.3275 80.5541 10.3437 80.4891 10.3599C80.4241 10.3762 80.3754 10.4087 80.3592 10.4411C80.3267 10.4736 80.3267 10.5061 80.3267 10.5548V15.7023C80.2779 15.8322 79.7905 16.0433 79.1569 16.0595C78.5232 16.0433 78.0358 15.8322 77.9871 15.7023V10.5548C77.9871 10.5061 77.9708 10.4736 77.9546 10.4411C77.9221 10.4087 77.8896 10.3762 77.8246 10.3599C77.7596 10.3437 77.6784 10.3275 77.5646 10.3112C77.4671 10.295 77.3209 10.295 77.1584 10.295C76.996 10.295 76.866 10.295 76.7523 10.3112C76.6548 10.3275 76.5573 10.3437 76.4923 10.3599C76.4273 10.3762 76.3786 10.4087 76.3623 10.4411C76.3298 10.4736 76.3298 10.5061 76.3298 10.5548V16.1082C76.4598 16.4005 76.6873 16.6766 77.0447 16.8877C77.6784 17.2612 78.4257 17.4235 79.1406 17.4235H79.1569C79.563 17.4235 79.9692 17.3748 80.3592 17.2612V17.5372C80.3592 17.797 78.9294 18.3166 77.6134 18.1867C77.4834 18.1705 77.4509 18.2679 77.4184 18.4303C77.3859 18.6089 77.3047 18.9174 77.2559 19.2097C77.2234 19.3559 77.2234 19.4858 77.3534 19.5183C78.7019 19.6806 81.0091 19.4695 81.9676 18.1055V10.5548C82.0001 10.5061 81.9839 10.4736 81.9514 10.4411Z" fill="white"/>
<path d="M69.0997 15.8809C69.0347 15.8647 68.9535 15.8322 68.8398 15.8322C68.7423 15.8159 68.5961 15.8159 68.4336 15.8159C68.2711 15.8159 68.1411 15.8159 68.0274 15.8322C67.9299 15.8484 67.8324 15.8647 67.7675 15.8809C67.7025 15.8971 67.6537 15.9296 67.6375 15.9621C67.605 15.9946 67.605 16.0433 67.605 16.0758V17.1475C67.605 17.1962 67.6212 17.2287 67.6375 17.2611C67.67 17.2936 67.7025 17.3261 67.7675 17.3423C67.8324 17.3586 67.9137 17.3748 68.0274 17.3911C68.1411 17.4073 68.2711 17.4073 68.4336 17.4073C68.5961 17.4073 68.726 17.4073 68.8398 17.3911C68.9373 17.3748 69.0347 17.3586 69.0997 17.3423C69.1647 17.3261 69.2135 17.2936 69.2297 17.2611C69.2622 17.2287 69.2622 17.1962 69.2622 17.1475V16.0758C69.2622 16.027 69.246 15.9946 69.2297 15.9621C69.2135 15.9296 69.1647 15.8971 69.0997 15.8809Z" fill="white"/>
<path d="M74.8675 10.7172C73.6327 9.98645 71.8618 10.0027 70.6595 10.7172C70.302 10.9283 70.0746 11.1881 69.9446 11.4966V19.2909C69.9446 19.4208 70.0746 19.5182 70.367 19.5345C70.4645 19.5507 70.6107 19.5507 70.7732 19.5507C70.9357 19.5507 71.0656 19.5507 71.1794 19.5345C71.4881 19.502 71.5693 19.3883 71.5693 19.2909V17.2774C72.6579 17.5859 73.9252 17.4722 74.8838 16.9039C75.2412 16.6928 75.4687 16.433 75.5986 16.1245V11.4966C75.4524 11.2043 75.2249 10.9283 74.8675 10.7172ZM73.9739 15.1664V15.4425C73.9739 15.5399 73.9414 15.6536 73.9252 15.7023C73.8927 15.8322 73.389 16.0595 72.7554 16.0758C72.1217 16.0595 71.6343 15.8322 71.5856 15.7023C71.5693 15.6536 71.5368 15.5399 71.5368 15.4425V15.1827V12.1624C71.5368 12.0649 71.5693 11.9513 71.5856 11.9026C71.6181 11.7726 72.1217 11.5453 72.7554 11.5291C73.389 11.5453 73.8764 11.7726 73.9252 11.9026C73.9414 11.9513 73.9739 12.0649 73.9739 12.1624V15.1664Z" fill="white"/>
<path d="M25.4758 22.701C25.3621 22.7497 25.1184 22.8309 24.8097 22.8309C24.111 22.8309 23.6724 22.3599 23.6724 21.6617C23.6724 20.9635 24.1598 20.4438 24.9072 20.4438C25.1509 20.4438 25.3783 20.5088 25.4921 20.5575L25.3946 20.8823C25.2971 20.8336 25.1346 20.7686 24.9072 20.7686C24.3872 20.7686 24.0948 21.1583 24.0948 21.6292C24.0948 22.1651 24.436 22.4899 24.8909 22.4899C25.1346 22.4899 25.2808 22.4249 25.3946 22.3762L25.4758 22.701Z" fill="white"/>
<path d="M26.1745 21.7104C26.1907 22.2788 26.5482 22.5061 26.9544 22.5061C27.2468 22.5061 27.4255 22.4574 27.588 22.3924L27.653 22.6847C27.5068 22.7497 27.2631 22.8309 26.8894 22.8309C26.1907 22.8309 25.7683 22.36 25.7683 21.6779C25.7683 20.9959 26.1745 20.4438 26.8406 20.4438C27.588 20.4438 27.783 21.1096 27.783 21.5156C27.783 21.5968 27.7667 21.6617 27.7667 21.7104H26.1745ZM27.393 21.4181C27.393 21.1583 27.2793 20.7361 26.8081 20.7361C26.3857 20.7361 26.207 21.1258 26.1745 21.4181H27.393Z" fill="white"/>
<path d="M28.319 21.2395C28.319 20.9472 28.3027 20.7037 28.3027 20.4926H28.6764L28.6927 20.8823H28.7089C28.8714 20.6062 29.1476 20.4438 29.5213 20.4438C30.0737 20.4438 30.4961 20.9148 30.4961 21.613C30.4961 22.4411 29.9925 22.8471 29.4563 22.8471C29.1476 22.8471 28.8876 22.7172 28.7577 22.4899H28.7414V23.7402H28.3352V21.2395H28.319ZM28.7252 21.8566C28.7252 21.9215 28.7414 21.9702 28.7414 22.019C28.8226 22.3112 29.0664 22.5061 29.3588 22.5061C29.7975 22.5061 30.0574 22.1489 30.0574 21.613C30.0574 21.1583 29.8137 20.7686 29.3751 20.7686C29.0989 20.7686 28.8226 20.9797 28.7414 21.2882C28.7252 21.3369 28.7089 21.4019 28.7089 21.4506V21.8566H28.7252Z" fill="white"/>
<path d="M31 20.525C31.1625 20.4926 31.4549 20.4763 31.7311 20.4763C32.1211 20.4763 32.7547 20.5413 32.7547 21.0447C32.7547 21.3207 32.5435 21.4993 32.2835 21.5643V21.5805C32.6247 21.6292 32.8684 21.8241 32.8684 22.1488C32.8684 22.7497 32.1048 22.8309 31.6661 22.8309C31.4062 22.8309 31.1462 22.8146 31.0162 22.7984V20.525H31ZM31.3899 22.5061C31.5037 22.5223 31.6011 22.5223 31.7311 22.5223C32.0073 22.5223 32.4298 22.4574 32.4298 22.1326C32.4298 21.8078 32.1048 21.7267 31.6986 21.7267H31.3899V22.5061ZM31.3899 21.4506H31.6986C32.0073 21.4506 32.316 21.3532 32.316 21.0934C32.316 20.866 32.1211 20.7524 31.6986 20.7524C31.5687 20.7524 31.4712 20.7686 31.3737 20.7686V21.4506H31.3899Z" fill="white"/>
<path d="M33.762 20.4926V21.4506C33.762 21.8078 33.762 22.0352 33.7458 22.3762H33.762C33.892 22.1001 33.9732 21.9378 34.1357 21.6779L34.8506 20.4926H35.338V22.7821H34.9481V21.8078C34.9481 21.4344 34.9643 21.2395 34.9806 20.866H34.9318C34.7856 21.1583 34.6881 21.3369 34.5581 21.5805C34.3469 21.9377 34.087 22.3762 33.8432 22.7821H33.3721V20.4926H33.762Z" fill="white"/>
<path d="M37.6289 22.701C37.5152 22.7497 37.2714 22.8309 36.9627 22.8309C36.2641 22.8309 35.8254 22.3599 35.8254 21.6617C35.8254 20.9635 36.3129 20.4438 37.0602 20.4438C37.3039 20.4438 37.5314 20.5088 37.6451 20.5575L37.5477 20.8823C37.4502 20.8336 37.2877 20.7686 37.0602 20.7686C36.5403 20.7686 36.2479 21.1583 36.2479 21.6292C36.2479 22.1651 36.5891 22.4899 37.044 22.4899C37.2877 22.4899 37.4339 22.4249 37.5477 22.3762L37.6289 22.701Z" fill="white"/>
<path d="M40.8621 19.7131C40.7484 19.7618 40.5371 19.7943 40.3909 19.8106C40.0172 19.8593 39.7573 19.9892 39.5786 20.249C39.4323 20.4601 39.3511 20.7686 39.3348 21.0122H39.3511C39.4973 20.6874 39.8223 20.4926 40.1472 20.4926C40.7159 20.4926 41.122 20.8985 41.122 21.6292C41.122 22.3762 40.7321 22.8471 40.066 22.8471C39.2536 22.8471 38.9937 22.0677 38.9937 21.3207C38.9937 20.8011 39.1074 20.3789 39.3511 20.0541C39.5786 19.7294 39.8873 19.5832 40.3422 19.5183C40.5209 19.4858 40.7484 19.4533 40.9108 19.3884L40.8621 19.7131ZM40.0335 20.8011C39.7898 20.8011 39.611 20.931 39.5136 21.1096C39.4323 21.2395 39.3998 21.4181 39.3998 21.5968C39.3998 21.9702 39.5786 22.5223 40.0335 22.5223C40.4884 22.5223 40.6671 22.0839 40.6671 21.6617C40.6834 21.2882 40.5371 20.8011 40.0335 20.8011Z" fill="white"/>
<path d="M41.6256 21.2395C41.6256 20.9472 41.6094 20.7037 41.6094 20.4926H41.9831L41.9993 20.8823H42.0156C42.178 20.6062 42.4542 20.4438 42.8279 20.4438C43.3803 20.4438 43.8028 20.9148 43.8028 21.613C43.8028 22.4411 43.2991 22.8471 42.7629 22.8471C42.4542 22.8471 42.1943 22.7172 42.0643 22.4899H42.048V23.7402H41.6419V21.2395H41.6256ZM42.0318 21.8566C42.0318 21.9215 42.048 21.9702 42.048 22.019C42.1293 22.3112 42.373 22.5061 42.6654 22.5061C43.1041 22.5061 43.3641 22.1489 43.3641 21.613C43.3641 21.1583 43.1204 20.7686 42.6817 20.7686C42.4055 20.7686 42.1293 20.9797 42.048 21.2882C42.0318 21.3369 42.0156 21.4019 42.0156 21.4506V21.8566H42.0318Z" fill="white"/>
<path d="M46.3862 21.6292C46.3862 22.4736 45.8013 22.8471 45.2489 22.8471C44.6315 22.8471 44.144 22.3924 44.144 21.6617C44.144 20.8985 44.6477 20.4438 45.2814 20.4438C45.9475 20.4438 46.3862 20.9148 46.3862 21.6292ZM44.5665 21.6455C44.5665 22.1489 44.8589 22.5223 45.2651 22.5223C45.655 22.5223 45.9637 22.1489 45.9637 21.6292C45.9637 21.2395 45.7688 20.7524 45.2814 20.7524C44.7939 20.7524 44.5665 21.207 44.5665 21.6455Z" fill="white"/>
<path d="M47.3122 20.4926V21.4181H48.4008V20.4926H48.8069V22.7821H48.4008V21.7591H47.3122V22.7984H46.906V20.5088H47.3122V20.4926Z" fill="white"/>
<path d="M49.8792 20.4926V21.4506C49.8792 21.8078 49.8792 22.0352 49.8629 22.3762H49.8792C50.0091 22.1001 50.0904 21.9378 50.2529 21.6779L50.9677 20.4926H51.4552V22.7821H51.0652V21.8078C51.0652 21.4344 51.0815 21.2395 51.0977 20.866H51.0815C50.9352 21.1583 50.8378 21.3369 50.7078 21.5805C50.4966 21.9377 50.2366 22.3762 49.9929 22.7821H49.5217V20.4926H49.8792Z" fill="white"/>
<path d="M52.1212 21.2395C52.1212 20.9472 52.105 20.7037 52.105 20.4926H52.4787L52.4949 20.8823H52.5112C52.6736 20.6062 52.9498 20.4438 53.3235 20.4438C53.8759 20.4438 54.2984 20.9148 54.2984 21.613C54.2984 22.4411 53.7947 22.8471 53.2585 22.8471C52.9498 22.8471 52.6899 22.7172 52.5599 22.4899H52.5437V23.7402H52.1375V21.2395H52.1212ZM52.5437 21.8566C52.5437 21.9215 52.5599 21.9702 52.5599 22.019C52.6411 22.3112 52.8848 22.5061 53.1773 22.5061C53.616 22.5061 53.8759 22.1489 53.8759 21.613C53.8759 21.1583 53.6322 20.7686 53.1935 20.7686C52.9173 20.7686 52.6411 20.9797 52.5599 21.2882C52.5437 21.3369 52.5274 21.4019 52.5274 21.4506V21.8566H52.5437Z" fill="white"/>
<path d="M56.8981 21.6292C56.8981 22.4736 56.3132 22.8471 55.7608 22.8471C55.1434 22.8471 54.656 22.3924 54.656 21.6617C54.656 20.8985 55.1597 20.4438 55.7933 20.4438C56.4432 20.4438 56.8981 20.9148 56.8981 21.6292ZM55.0784 21.6455C55.0784 22.1489 55.3709 22.5223 55.7771 22.5223C56.167 22.5223 56.4757 22.1489 56.4757 21.6292C56.4757 21.2395 56.2807 20.7524 55.7933 20.7524C55.3059 20.7524 55.0784 21.207 55.0784 21.6455Z" fill="white"/>
<path d="M57.418 20.525C57.5804 20.4926 57.8729 20.4763 58.1491 20.4763C58.539 20.4763 59.1727 20.5413 59.1727 21.0447C59.1727 21.3207 58.9615 21.4993 58.7015 21.5643V21.5805C59.0427 21.6292 59.2864 21.8241 59.2864 22.1488C59.2864 22.7497 58.5228 22.8309 58.0841 22.8309C57.8242 22.8309 57.5642 22.8146 57.4342 22.7984V20.525H57.418ZM57.8079 22.5061C57.9216 22.5223 58.0191 22.5223 58.1491 22.5223C58.4253 22.5223 58.8477 22.4574 58.8477 22.1326C58.8477 21.8078 58.5228 21.7267 58.1166 21.7267H57.8079V22.5061ZM57.8079 21.4506H58.1166C58.4253 21.4506 58.734 21.3532 58.734 21.0934C58.734 20.866 58.539 20.7524 58.1166 20.7524C57.9866 20.7524 57.8891 20.7686 57.7917 20.7686V21.4506H57.8079Z" fill="white"/>
<path d="M61.0573 22.7821L61.0248 22.4899H61.0086C60.8786 22.6685 60.6349 22.8309 60.31 22.8309C59.8388 22.8309 59.6113 22.5061 59.6113 22.1651C59.6113 21.613 60.0987 21.3045 60.9923 21.3207V21.272C60.9923 21.0771 60.9436 20.7361 60.4724 20.7361C60.2612 20.7361 60.0338 20.8011 59.8713 20.8985L59.7738 20.6225C59.9688 20.4926 60.245 20.4114 60.5212 20.4114C61.2198 20.4114 61.3985 20.8823 61.3985 21.3532V22.2138C61.3985 22.4087 61.4148 22.6035 61.431 22.7659H61.0573V22.7821ZM60.9923 21.613C60.5374 21.5968 60.0175 21.678 60.0175 22.1326C60.0175 22.4087 60.1962 22.5223 60.4074 22.5223C60.6999 22.5223 60.8949 22.3275 60.9599 22.1326C60.9761 22.0839 60.9761 22.0352 60.9761 22.0027V21.613H60.9923Z" fill="white"/>
<path d="M62.4709 20.4926V21.4181H63.5595V20.4926H63.9656V22.7821H63.5595V21.7591H62.4709V22.7984H62.0647V20.5088H62.4709V20.4926Z" fill="white"/>
<path d="M65.0379 20.4926V21.4506C65.0379 21.8078 65.0379 22.0352 65.0216 22.3762H65.0379C65.1678 22.1001 65.2491 21.9378 65.4115 21.6779L66.1264 20.4926H66.6138V22.7821H66.2239V21.8078C66.2239 21.4344 66.2402 21.2395 66.2564 20.866H66.2402C66.0939 21.1583 65.9964 21.3369 65.8665 21.5805C65.6553 21.9377 65.3953 22.3762 65.1516 22.7821H64.6804V20.4926H65.0379Z" fill="white"/>
<path d="M68.9698 22.7821H68.5636V21.8241H68.2549C68.0762 21.8241 67.9625 21.8728 67.865 21.954C67.7025 22.0839 67.6376 22.3762 67.5401 22.6035C67.5076 22.6685 67.4751 22.7334 67.4426 22.7984H67.0039C67.0526 22.7172 67.1014 22.636 67.1501 22.5386C67.2476 22.3112 67.3126 22.0189 67.5076 21.8403C67.5726 21.7754 67.67 21.7267 67.7675 21.7104V21.6942C67.4751 21.6617 67.1664 21.4831 67.1664 21.1258C67.1664 20.8823 67.2964 20.7361 67.4751 20.6225C67.67 20.5088 67.9462 20.4601 68.2387 20.4601C68.5149 20.4601 68.7749 20.4763 68.9698 20.5088V22.7821ZM68.5636 20.7686C68.4662 20.7524 68.3687 20.7524 68.2225 20.7524C67.9462 20.7524 67.6051 20.8336 67.6051 21.1421C67.6051 21.4344 67.9625 21.5318 68.2225 21.5318C68.3849 21.5318 68.4824 21.5318 68.5799 21.5318V20.7686H68.5636Z" fill="white"/>
<path d="M72.203 20.4926V20.8173H71.4881V22.7821H71.082V20.8173H70.3508V20.4926H72.203Z" fill="white"/>
<path d="M72.8204 20.4926L73.324 21.8403C73.3728 21.9865 73.4378 22.1651 73.4703 22.3112H73.4865C73.5353 22.1813 73.584 22.0027 73.6327 21.8403L74.0877 20.4926H74.5263L73.9089 22.1326C73.6165 22.912 73.4053 23.318 73.1291 23.5616C72.9179 23.7402 72.7229 23.8051 72.6254 23.8376L72.5279 23.4804C72.6254 23.4479 72.7716 23.3829 72.8854 23.2693C72.9991 23.1719 73.1453 23.0257 73.2428 22.7984C73.2591 22.7497 73.2753 22.7172 73.2753 22.7009C73.2753 22.6847 73.2591 22.6522 73.2428 22.5873L72.3979 20.4763H72.8204V20.4926Z" fill="white"/>
<path d="M74.9 21.2395C74.9 20.9472 74.8838 20.7037 74.8838 20.4926H75.2575L75.2737 20.8823H75.29C75.4524 20.6062 75.7286 20.4438 76.1023 20.4438C76.6547 20.4438 77.0772 20.9148 77.0772 21.613C77.0772 22.4411 76.5735 22.8471 76.0373 22.8471C75.7286 22.8471 75.4687 22.7172 75.3387 22.4899H75.3225V23.7402H74.9V21.2395ZM75.3062 21.8566C75.3062 21.9215 75.3225 21.9702 75.3225 22.019C75.4037 22.3112 75.6474 22.5061 75.9399 22.5061C76.3785 22.5061 76.6385 22.1489 76.6385 21.613C76.6385 21.1583 76.3948 20.7686 75.9561 20.7686C75.6799 20.7686 75.4037 20.9797 75.3225 21.2882C75.3062 21.3369 75.29 21.4019 75.29 21.4506V21.8566H75.3062Z" fill="white"/>
<path d="M79.6606 21.6292C79.6606 22.4736 79.0757 22.8471 78.5233 22.8471C77.9059 22.8471 77.4185 22.3924 77.4185 21.6617C77.4185 20.8985 77.9221 20.4438 78.5558 20.4438C79.2219 20.4438 79.6606 20.9148 79.6606 21.6292ZM77.8409 21.6455C77.8409 22.1489 78.1333 22.5223 78.5395 22.5223C78.9295 22.5223 79.2382 22.1489 79.2382 21.6292C79.2382 21.2395 79.0432 20.7524 78.5558 20.7524C78.0683 20.7524 77.8409 21.207 77.8409 21.6455Z" fill="white"/>
<path d="M80.1804 20.525C80.3429 20.4926 80.6353 20.4763 80.9115 20.4763C81.3015 20.4763 81.9351 20.5413 81.9351 21.0447C81.9351 21.3207 81.7239 21.4993 81.4639 21.5643V21.5805C81.8051 21.6292 82.0489 21.8241 82.0489 22.1488C82.0489 22.7497 81.2852 22.8309 80.8466 22.8309C80.5866 22.8309 80.3266 22.8146 80.1967 22.7984V20.525H80.1804ZM80.5704 22.5061C80.6841 22.5223 80.7816 22.5223 80.9115 22.5223C81.1877 22.5223 81.6102 22.4574 81.6102 22.1326C81.6102 21.8078 81.2852 21.7267 80.879 21.7267H80.5704V22.5061ZM80.5704 21.4506H80.879C81.1877 21.4506 81.4964 21.3532 81.4964 21.0934C81.4964 20.866 81.3015 20.7524 80.879 20.7524C80.7491 20.7524 80.6516 20.7686 80.5541 20.7686V21.4506H80.5704Z" fill="white"/>
</g>
<defs>
<clipPath id="clip0_29_762">
<rect width="82" height="24" fill="white"/>
</clipPath>
</defs>
</svg>
