<svg width="18" height="16" viewBox="0 0 18 16" fill="none" xmlns="http://www.w3.org/2000/svg">
<path d="M15.9189 0.486961C15.6781 0.497436 15.4572 0.566695 15.263 0.643211C15.0837 0.713844 14.4396 0.984543 13.4141 1.4147C12.3885 1.84485 11.0296 2.41518 9.58105 3.0244C6.68404 4.24283 3.42853 5.61342 1.76042 6.31541C1.70313 6.33928 1.47049 6.4105 1.21354 6.60675C0.956 6.80346 0.669922 7.23037 0.669922 7.69725C0.669922 8.07387 0.857933 8.45745 1.08496 8.67706C1.31199 8.89668 1.54208 8.99935 1.73438 9.07583V9.0742C2.3844 9.33317 4.32558 10.1099 4.78776 10.2949C4.9517 10.7862 5.65549 12.8894 5.82292 13.4183H5.82129C5.93963 13.7926 6.05498 14.0366 6.21517 14.2402C6.29526 14.342 6.39087 14.4343 6.50814 14.5071C6.55313 14.5351 6.60295 14.5568 6.65299 14.5771C6.65997 14.5801 6.66716 14.5808 6.67415 14.5836L6.65462 14.5788C6.66913 14.5846 6.68215 14.5932 6.69694 14.5983C6.72104 14.6066 6.73774 14.6063 6.77018 14.6129C6.88435 14.6481 6.99832 14.6715 7.10384 14.6715C7.55685 14.6715 7.83463 14.4258 7.83463 14.4258L7.85254 14.4127L9.80892 12.7575L12.2048 14.9743C12.2485 15.0361 12.5913 15.5 13.3848 15.5C13.8582 15.5 14.2325 15.2656 14.472 15.0198C14.7115 14.774 14.8607 14.5225 14.9277 14.1816L14.9294 14.18C14.9828 13.9048 17.2764 2.388 17.2764 2.388L17.2715 2.40753C17.3429 2.08891 17.3639 1.78078 17.2796 1.46678C17.1953 1.15277 16.9677 0.846337 16.6937 0.685529C16.4196 0.524722 16.1597 0.476486 15.9189 0.486961ZM15.5902 2.31151C15.4995 2.76653 13.445 13.0882 13.318 13.7357L9.85775 10.5342L7.51888 12.5117L8.16667 9.97915C8.16667 9.97915 12.6355 5.4557 12.9046 5.19237C13.1213 4.98153 13.1667 4.90763 13.1667 4.83429C13.1667 4.73679 13.1165 4.66665 13.0007 4.66665C12.8965 4.66665 12.755 4.76647 12.68 4.81313C11.727 5.4073 7.66774 7.72055 5.67155 8.8561C5.55142 8.80793 3.74783 8.0837 2.77604 7.69562C4.5046 6.96812 7.46763 5.72149 10.2272 4.56085C11.6755 3.95174 13.034 3.3809 14.0586 2.95115C14.9235 2.5884 15.3746 2.40057 15.5902 2.31151ZM13.2936 13.8545H13.2952C13.2952 13.8547 13.2937 13.8591 13.2936 13.8594C13.2947 13.854 13.2928 13.8587 13.2936 13.8545Z" fill="#313140"/>
</svg>
