<svg width="19" height="10" viewBox="0 0 19 10" fill="none" xmlns="http://www.w3.org/2000/svg">
<path d="M18.0225 0.654661C18.116 0.280569 18.0225 0 17.4624 0H15.4994C15.0318 0 14.7522 0.280569 14.6587 0.561138C14.6587 0.561138 13.6309 2.8037 12.2291 4.29907C11.7615 4.76669 11.5744 4.86021 11.2948 4.86021C11.2013 4.86021 11.0143 4.76669 11.0143 4.29907V0.654661C11.0133 0.187046 10.8262 0 10.4521 0H7.36786C7.08729 0 6.90025 0.187046 6.90025 0.374092C6.90025 0.841707 7.64744 0.93523 7.64744 2.15003V4.86021C7.64744 5.42135 7.55391 5.51487 7.27334 5.51487C6.61868 5.51487 5.03078 3.27231 4.00203 0.654661C3.91049 0.187046 3.72345 0 3.16231 0H1.20032C0.639177 0 0.545654 0.280569 0.545654 0.561138C0.545654 1.02875 1.20032 3.45836 3.62992 6.63616C5.21882 8.78619 7.55491 10.001 9.61142 10.001C10.8262 10.001 11.0133 9.72043 11.0133 9.25381V7.66391C11.0133 7.10278 11.1068 7.00925 11.4809 7.00925C11.7615 7.00925 12.2281 7.10278 13.4439 8.22406C14.7522 9.43886 15.0328 10 15.78 10H17.7429C18.3041 10 18.5837 9.71943 18.3976 9.25281C18.2106 8.7852 17.5569 8.03801 16.7152 7.10278C16.2476 6.63516 15.5939 6.07502 15.4069 5.79445C15.1263 5.42036 15.2198 5.32683 15.4069 4.95374C15.4059 4.86021 17.742 1.77594 18.0225 0.654661Z" fill="#313140"/>
</svg>
